<svg width="42" height="31" viewBox="0 0 42 31" fill="none" xmlns="http://www.w3.org/2000/svg">
<path d="M24.5005 6.10574C23.2986 6.10574 22.3249 7.07153 22.3249 8.26365V14.7745C22.3249 15.8967 21.4043 16.8098 20.2729 16.8098C19.1416 16.8098 18.221 15.8967 18.221 14.7745V8.26365C18.221 7.07153 17.2473 6.10574 16.0454 6.10574C14.8435 6.10574 13.8698 7.07153 13.8698 8.26365V14.7745C13.8698 18.2766 16.7421 21.1256 20.2729 21.1256C23.8037 21.1256 26.6761 18.2766 26.6761 14.7745V8.26365C26.6761 7.07153 25.7024 6.10574 24.5005 6.10574Z" fill="black"/>
<path d="M10.6307 6.10574C9.42882 6.10574 8.45511 7.07153 8.45511 8.26365V14.7737C8.45511 15.8958 7.53452 16.8089 6.40317 16.8089C5.27181 16.8089 4.35123 15.8958 4.35123 14.7737V8.26278C4.35123 7.07066 3.37751 6.10487 2.17561 6.10487C0.973713 6.10487 0 7.07066 0 8.26278V14.7737C0 18.2757 2.87237 21.1247 6.40317 21.1247C7.12082 21.1247 7.81061 21.0055 8.45511 20.7878V25.0726C8.45511 26.2638 9.42882 27.2305 10.6307 27.2305C11.8326 27.2305 12.8063 26.2647 12.8063 25.0726V8.26365C12.8063 7.07153 11.8326 6.10574 10.6307 6.10574Z" fill="black"/>
<path d="M34.1427 6.10574C33.425 6.10574 32.7352 6.22495 32.0907 6.44264V2.15791C32.0907 0.965791 31.117 0 29.9151 0C28.7132 0 27.7395 0.965791 27.7395 2.15791V18.9668C27.7395 20.1581 28.7132 21.1247 29.9151 21.1247C31.1162 21.1247 32.0907 20.1589 32.0907 18.9668V12.4568C32.0907 11.3347 33.0113 10.4216 34.1427 10.4216C35.274 10.4216 36.1946 11.3347 36.1946 12.4568V18.9677C36.1946 20.1589 37.1683 21.1256 38.3702 21.1256C39.5713 21.1256 40.5458 20.1598 40.5458 18.9677V12.4568C40.5458 8.95473 37.6735 6.10574 34.1427 6.10574Z" fill="black"/>
<path d="M15.8397 25.3415L15.1445 23.4539C15.124 23.3952 15.1137 23.3409 15.1137 23.2911C15.1137 23.162 15.1592 23.052 15.2501 22.9611C15.3411 22.8701 15.4511 22.8247 15.5801 22.8247C15.6828 22.8247 15.7737 22.8555 15.8529 22.9171C15.9351 22.9757 15.9923 23.0535 16.0245 23.1503L16.5701 24.8443L17.1157 23.1503C17.148 23.0535 17.2037 22.9757 17.2829 22.9171C17.3651 22.8555 17.4575 22.8247 17.5601 22.8247C17.6892 22.8247 17.7992 22.8701 17.8901 22.9611C17.9811 23.052 18.0265 23.162 18.0265 23.2911C18.0265 23.3409 18.0163 23.3952 17.9957 23.4539L17.3005 25.3415C17.2448 25.4911 17.1495 25.6128 17.0145 25.7067C16.8825 25.8005 16.7344 25.8475 16.5701 25.8475C16.4059 25.8475 16.2563 25.8005 16.1213 25.7067C15.9893 25.6128 15.8955 25.4911 15.8397 25.3415Z" fill="black"/>
<path d="M18.1821 25.5307C17.965 25.3136 17.8565 25.0496 17.8565 24.7387C17.8565 24.4277 17.965 24.1652 18.1821 23.9511C18.4021 23.734 18.691 23.6255 19.0489 23.6255C19.4067 23.6255 19.6957 23.734 19.9157 23.9511C20.1357 24.1652 20.2457 24.4277 20.2457 24.7387C20.2457 25.0496 20.1357 25.3136 19.9157 25.5307C19.6957 25.7477 19.4067 25.8563 19.0489 25.8563C18.691 25.8563 18.4021 25.7477 18.1821 25.5307ZM19.4317 24.7387C19.4317 24.6155 19.3979 24.5157 19.3305 24.4395C19.263 24.3632 19.1691 24.3251 19.0489 24.3251C18.9345 24.3251 18.8421 24.3632 18.7717 24.4395C18.7042 24.5157 18.6705 24.6155 18.6705 24.7387C18.6705 24.8619 18.7042 24.9631 18.7717 25.0423C18.8421 25.1185 18.9345 25.1567 19.0489 25.1567C19.1691 25.1567 19.263 25.1185 19.3305 25.0423C19.3979 24.966 19.4317 24.8648 19.4317 24.7387Z" fill="black"/>
<path d="M21.9623 25.5043C21.9623 25.5835 21.9374 25.6539 21.8875 25.7155C21.8377 25.7741 21.7731 25.8123 21.6939 25.8299C21.6177 25.8475 21.5311 25.8563 21.4343 25.8563C21.1967 25.8563 21.0149 25.8005 20.8887 25.6891C20.7655 25.5747 20.7039 25.4075 20.7039 25.1875V24.3647H20.6511C20.5573 24.3647 20.4766 24.3309 20.4091 24.2635C20.3417 24.196 20.3079 24.1153 20.3079 24.0215C20.3079 23.9276 20.3417 23.8469 20.4091 23.7795C20.4766 23.712 20.5573 23.6783 20.6511 23.6783H20.7039V23.4495C20.7039 23.3409 20.7421 23.2485 20.8183 23.1723C20.8975 23.0931 20.9914 23.0535 21.0999 23.0535C21.2085 23.0535 21.3009 23.0931 21.3771 23.1723C21.4563 23.2485 21.4959 23.3409 21.4959 23.4495V23.6783H21.6279C21.7218 23.6783 21.8025 23.712 21.8699 23.7795C21.9374 23.8469 21.9711 23.9276 21.9711 24.0215C21.9711 24.1153 21.9374 24.196 21.8699 24.2635C21.8025 24.3309 21.7218 24.3647 21.6279 24.3647H21.4959V24.9587C21.4959 25.0115 21.5106 25.0569 21.5399 25.0951C21.5693 25.1332 21.6074 25.1537 21.6543 25.1567L21.6939 25.1611C21.7731 25.1699 21.8377 25.208 21.8875 25.2755C21.9374 25.34 21.9623 25.4163 21.9623 25.5043Z" fill="black"/>
<path d="M23.7304 23.9687C23.7304 24.0801 23.7011 24.1725 23.6424 24.2459C23.5867 24.3163 23.506 24.3573 23.4004 24.3691C23.198 24.3955 23.0689 24.4424 23.0132 24.5099V25.4515C23.0132 25.56 22.9736 25.6539 22.8944 25.7331C22.8181 25.8093 22.7257 25.8475 22.6172 25.8475C22.5087 25.8475 22.4148 25.8093 22.3356 25.7331C22.2593 25.6539 22.2212 25.56 22.2212 25.4515V24.0479C22.2212 23.9335 22.2579 23.8367 22.3312 23.7575C22.4075 23.6753 22.5028 23.6343 22.6172 23.6343C22.7111 23.6343 22.7947 23.6607 22.868 23.7135C22.9413 23.7663 22.9897 23.8352 23.0132 23.9203C23.0631 23.8088 23.132 23.7281 23.22 23.6783C23.2757 23.646 23.3329 23.6299 23.3916 23.6299C23.4855 23.6299 23.5647 23.6636 23.6292 23.7311C23.6967 23.7956 23.7304 23.8748 23.7304 23.9687Z" fill="black"/>
<path d="M24.9477 23.6255C25.2498 23.6196 25.5109 23.7149 25.7309 23.9115C25.9509 24.108 26.0579 24.3368 26.0521 24.5979C26.0521 24.7387 26.0139 24.8384 25.9377 24.8971C25.8643 24.9557 25.7455 24.9851 25.5813 24.9851H24.6089C24.6353 25.0643 24.6895 25.1288 24.7717 25.1787C24.8538 25.2285 24.955 25.2535 25.0753 25.2535C25.175 25.2535 25.2791 25.2329 25.3877 25.1919C25.4258 25.1772 25.4625 25.1699 25.4977 25.1699C25.5798 25.1699 25.6502 25.1992 25.7089 25.2579C25.7675 25.3165 25.7969 25.3869 25.7969 25.4691C25.7969 25.5277 25.7778 25.582 25.7397 25.6319C25.7045 25.6817 25.659 25.7199 25.6033 25.7463C25.4097 25.8196 25.1999 25.8563 24.9741 25.8563C24.6309 25.8563 24.3478 25.7551 24.1249 25.5527C23.9019 25.3473 23.7905 25.076 23.7905 24.7387C23.7905 24.4248 23.899 24.1608 24.1161 23.9467C24.3361 23.7325 24.6133 23.6255 24.9477 23.6255ZM24.6001 24.4835H25.2997C25.2586 24.3133 25.1413 24.2283 24.9477 24.2283C24.7599 24.2283 24.6441 24.3133 24.6001 24.4835Z" fill="black"/>
<path d="M29.4658 24.5187V25.4251C29.4658 25.5424 29.4277 25.6421 29.3514 25.7243C29.2781 25.8064 29.1842 25.8475 29.0698 25.8475C28.9847 25.8475 28.9055 25.824 28.8322 25.7771C28.7618 25.7301 28.7105 25.6685 28.6782 25.5923C28.6195 25.6685 28.5301 25.7316 28.4098 25.7815C28.2895 25.8313 28.1634 25.8563 28.0314 25.8563C27.8437 25.8563 27.675 25.7947 27.5254 25.6715C27.3758 25.5453 27.301 25.3737 27.301 25.1567C27.301 24.9191 27.3729 24.7504 27.5166 24.6507C27.6603 24.5509 27.8319 24.5011 28.0314 24.5011C28.1722 24.5011 28.2998 24.5216 28.4142 24.5627C28.5315 24.6037 28.6181 24.6609 28.6738 24.7343V24.4923C28.6738 24.4131 28.6386 24.35 28.5682 24.3031C28.4978 24.2532 28.401 24.2283 28.2778 24.2283C28.1399 24.2283 28.005 24.2605 27.873 24.3251C27.8378 24.3427 27.7997 24.3515 27.7586 24.3515C27.6794 24.3515 27.6119 24.3236 27.5562 24.2679C27.5005 24.2121 27.4726 24.1447 27.4726 24.0655C27.4726 23.9511 27.5254 23.866 27.631 23.8103C27.8774 23.6871 28.1414 23.6255 28.423 23.6255C28.731 23.6255 28.9803 23.6929 29.171 23.8279C29.3675 23.9628 29.4658 24.1931 29.4658 24.5187ZM28.6738 25.2271V25.1083C28.6181 25.032 28.5139 24.9939 28.3614 24.9939C28.1766 24.9939 28.0842 25.0525 28.0842 25.1699C28.0842 25.2843 28.1766 25.3415 28.3614 25.3415C28.5139 25.3415 28.6181 25.3033 28.6738 25.2271Z" fill="black"/>
<path d="M32.2272 24.7387C32.2272 25.0877 32.1407 25.362 31.9676 25.5615C31.7946 25.758 31.5702 25.8563 31.2944 25.8563C31.0598 25.8563 30.8603 25.7639 30.696 25.5791V26.2611C30.696 26.3696 30.6564 26.462 30.5772 26.5383C30.501 26.6175 30.4086 26.6571 30.3 26.6571C30.1915 26.6571 30.0976 26.6175 30.0184 26.5383C29.9422 26.462 29.904 26.3696 29.904 26.2611V24.0303C29.904 23.9129 29.9407 23.8147 30.014 23.7355C30.0903 23.6533 30.1856 23.6123 30.3 23.6123C30.391 23.6123 30.4731 23.6401 30.5464 23.6959C30.6198 23.7487 30.6696 23.8176 30.696 23.9027C30.8486 23.7179 31.048 23.6255 31.2944 23.6255C31.5702 23.6255 31.7946 23.7252 31.9676 23.9247C32.1407 24.1212 32.2272 24.3925 32.2272 24.7387ZM31.4176 24.7387C31.4176 24.6155 31.3795 24.5157 31.3032 24.4395C31.2299 24.3632 31.136 24.3251 31.0216 24.3251C30.9659 24.3251 30.9058 24.3383 30.8412 24.3647C30.7796 24.3911 30.7312 24.4263 30.696 24.4703V25.0115C30.7283 25.0525 30.7767 25.0877 30.8412 25.1171C30.9058 25.1435 30.9659 25.1567 31.0216 25.1567C31.136 25.1567 31.2299 25.1185 31.3032 25.0423C31.3795 24.966 31.4176 24.8648 31.4176 24.7387Z" fill="black"/>
<path d="M34.844 24.7387C34.844 25.0877 34.7575 25.362 34.5844 25.5615C34.4114 25.758 34.187 25.8563 33.9112 25.8563C33.6766 25.8563 33.4771 25.7639 33.3128 25.5791V26.2611C33.3128 26.3696 33.2732 26.462 33.194 26.5383C33.1178 26.6175 33.0254 26.6571 32.9168 26.6571C32.8083 26.6571 32.7144 26.6175 32.6352 26.5383C32.559 26.462 32.5208 26.3696 32.5208 26.2611V24.0303C32.5208 23.9129 32.5575 23.8147 32.6308 23.7355C32.7071 23.6533 32.8024 23.6123 32.9168 23.6123C33.0078 23.6123 33.0899 23.6401 33.1632 23.6959C33.2366 23.7487 33.2864 23.8176 33.3128 23.9027C33.4654 23.7179 33.6648 23.6255 33.9112 23.6255C34.187 23.6255 34.4114 23.7252 34.5844 23.9247C34.7575 24.1212 34.844 24.3925 34.844 24.7387ZM34.0344 24.7387C34.0344 24.6155 33.9963 24.5157 33.92 24.4395C33.8467 24.3632 33.7528 24.3251 33.6384 24.3251C33.5827 24.3251 33.5226 24.3383 33.458 24.3647C33.3964 24.3911 33.348 24.4263 33.3128 24.4703V25.0115C33.3451 25.0525 33.3935 25.0877 33.458 25.1171C33.5226 25.1435 33.5827 25.1567 33.6384 25.1567C33.7528 25.1567 33.8467 25.1185 33.92 25.0423C33.9963 24.966 34.0344 24.8648 34.0344 24.7387Z" fill="black"/>
<path d="M35.208 25.0555C35.3019 24.9616 35.4119 24.9147 35.538 24.9147C35.6642 24.9147 35.7741 24.9616 35.868 25.0555C35.9619 25.1493 36.0088 25.2593 36.0088 25.3855C36.0088 25.5116 35.9619 25.6216 35.868 25.7155C35.7741 25.8093 35.6642 25.8563 35.538 25.8563C35.4119 25.8563 35.3019 25.8093 35.208 25.7155C35.1141 25.6216 35.0672 25.5116 35.0672 25.3855C35.0672 25.2593 35.1141 25.1493 35.208 25.0555Z" fill="black"/>
<path d="M15.8397 29.3415L15.1445 27.4539C15.124 27.3952 15.1137 27.3409 15.1137 27.2911C15.1137 27.162 15.1592 27.052 15.2501 26.9611C15.3411 26.8701 15.4511 26.8247 15.5801 26.8247C15.6828 26.8247 15.7737 26.8555 15.8529 26.9171C15.9351 26.9757 15.9923 27.0535 16.0245 27.1503L16.5701 28.8443L17.1157 27.1503C17.148 27.0535 17.2037 26.9757 17.2829 26.9171C17.3651 26.8555 17.4575 26.8247 17.5601 26.8247C17.6892 26.8247 17.7992 26.8701 17.8901 26.9611C17.9811 27.052 18.0265 27.162 18.0265 27.2911C18.0265 27.3409 18.0163 27.3952 17.9957 27.4539L17.3005 29.3415C17.2448 29.4911 17.1495 29.6128 17.0145 29.7067C16.8825 29.8005 16.7344 29.8475 16.5701 29.8475C16.4059 29.8475 16.2563 29.8005 16.1213 29.7067C15.9893 29.6128 15.8955 29.4911 15.8397 29.3415Z" fill="black"/>
<path d="M18.1821 29.5307C17.965 29.3136 17.8565 29.0496 17.8565 28.7387C17.8565 28.4277 17.965 28.1652 18.1821 27.9511C18.4021 27.734 18.691 27.6255 19.0489 27.6255C19.4067 27.6255 19.6957 27.734 19.9157 27.9511C20.1357 28.1652 20.2457 28.4277 20.2457 28.7387C20.2457 29.0496 20.1357 29.3136 19.9157 29.5307C19.6957 29.7477 19.4067 29.8563 19.0489 29.8563C18.691 29.8563 18.4021 29.7477 18.1821 29.5307ZM19.4317 28.7387C19.4317 28.6155 19.3979 28.5157 19.3305 28.4395C19.263 28.3632 19.1691 28.3251 19.0489 28.3251C18.9345 28.3251 18.8421 28.3632 18.7717 28.4395C18.7042 28.5157 18.6705 28.6155 18.6705 28.7387C18.6705 28.8619 18.7042 28.9631 18.7717 29.0423C18.8421 29.1185 18.9345 29.1567 19.0489 29.1567C19.1691 29.1567 19.263 29.1185 19.3305 29.0423C19.3979 28.966 19.4317 28.8648 19.4317 28.7387Z" fill="black"/>
<path d="M21.9623 29.5043C21.9623 29.5835 21.9374 29.6539 21.8875 29.7155C21.8377 29.7741 21.7731 29.8123 21.6939 29.8299C21.6177 29.8475 21.5311 29.8563 21.4343 29.8563C21.1967 29.8563 21.0149 29.8005 20.8887 29.6891C20.7655 29.5747 20.7039 29.4075 20.7039 29.1875V28.3647H20.6511C20.5573 28.3647 20.4766 28.3309 20.4091 28.2635C20.3417 28.196 20.3079 28.1153 20.3079 28.0215C20.3079 27.9276 20.3417 27.8469 20.4091 27.7795C20.4766 27.712 20.5573 27.6783 20.6511 27.6783H20.7039V27.4495C20.7039 27.3409 20.7421 27.2485 20.8183 27.1723C20.8975 27.0931 20.9914 27.0535 21.0999 27.0535C21.2085 27.0535 21.3009 27.0931 21.3771 27.1723C21.4563 27.2485 21.4959 27.3409 21.4959 27.4495V27.6783H21.6279C21.7218 27.6783 21.8025 27.712 21.8699 27.7795C21.9374 27.8469 21.9711 27.9276 21.9711 28.0215C21.9711 28.1153 21.9374 28.196 21.8699 28.2635C21.8025 28.3309 21.7218 28.3647 21.6279 28.3647H21.4959V28.9587C21.4959 29.0115 21.5106 29.0569 21.5399 29.0951C21.5693 29.1332 21.6074 29.1537 21.6543 29.1567L21.6939 29.1611C21.7731 29.1699 21.8377 29.208 21.8875 29.2755C21.9374 29.34 21.9623 29.4163 21.9623 29.5043Z" fill="black"/>
<path d="M23.7304 27.9687C23.7304 28.0801 23.7011 28.1725 23.6424 28.2459C23.5867 28.3163 23.506 28.3573 23.4004 28.3691C23.198 28.3955 23.0689 28.4424 23.0132 28.5099V29.4515C23.0132 29.56 22.9736 29.6539 22.8944 29.7331C22.8181 29.8093 22.7257 29.8475 22.6172 29.8475C22.5087 29.8475 22.4148 29.8093 22.3356 29.7331C22.2593 29.6539 22.2212 29.56 22.2212 29.4515V28.0479C22.2212 27.9335 22.2579 27.8367 22.3312 27.7575C22.4075 27.6753 22.5028 27.6343 22.6172 27.6343C22.7111 27.6343 22.7947 27.6607 22.868 27.7135C22.9413 27.7663 22.9897 27.8352 23.0132 27.9203C23.0631 27.8088 23.132 27.7281 23.22 27.6783C23.2757 27.646 23.3329 27.6299 23.3916 27.6299C23.4855 27.6299 23.5647 27.6636 23.6292 27.7311C23.6967 27.7956 23.7304 27.8748 23.7304 27.9687Z" fill="black"/>
<path d="M24.9477 27.6255C25.2498 27.6196 25.5109 27.7149 25.7309 27.9115C25.9509 28.108 26.0579 28.3368 26.0521 28.5979C26.0521 28.7387 26.0139 28.8384 25.9377 28.8971C25.8643 28.9557 25.7455 28.9851 25.5813 28.9851H24.6089C24.6353 29.0643 24.6895 29.1288 24.7717 29.1787C24.8538 29.2285 24.955 29.2535 25.0753 29.2535C25.175 29.2535 25.2791 29.2329 25.3877 29.1919C25.4258 29.1772 25.4625 29.1699 25.4977 29.1699C25.5798 29.1699 25.6502 29.1992 25.7089 29.2579C25.7675 29.3165 25.7969 29.3869 25.7969 29.4691C25.7969 29.5277 25.7778 29.582 25.7397 29.6319C25.7045 29.6817 25.659 29.7199 25.6033 29.7463C25.4097 29.8196 25.1999 29.8563 24.9741 29.8563C24.6309 29.8563 24.3478 29.7551 24.1249 29.5527C23.9019 29.3473 23.7905 29.076 23.7905 28.7387C23.7905 28.4248 23.899 28.1608 24.1161 27.9467C24.3361 27.7325 24.6133 27.6255 24.9477 27.6255ZM24.6001 28.4835H25.2997C25.2586 28.3133 25.1413 28.2283 24.9477 28.2283C24.7599 28.2283 24.6441 28.3133 24.6001 28.4835Z" fill="black"/>
<path d="M29.4658 28.5187V29.4251C29.4658 29.5424 29.4277 29.6421 29.3514 29.7243C29.2781 29.8064 29.1842 29.8475 29.0698 29.8475C28.9847 29.8475 28.9055 29.824 28.8322 29.7771C28.7618 29.7301 28.7105 29.6685 28.6782 29.5923C28.6195 29.6685 28.5301 29.7316 28.4098 29.7815C28.2895 29.8313 28.1634 29.8563 28.0314 29.8563C27.8437 29.8563 27.675 29.7947 27.5254 29.6715C27.3758 29.5453 27.301 29.3737 27.301 29.1567C27.301 28.9191 27.3729 28.7504 27.5166 28.6507C27.6603 28.5509 27.8319 28.5011 28.0314 28.5011C28.1722 28.5011 28.2998 28.5216 28.4142 28.5627C28.5315 28.6037 28.6181 28.6609 28.6738 28.7343V28.4923C28.6738 28.4131 28.6386 28.35 28.5682 28.3031C28.4978 28.2532 28.401 28.2283 28.2778 28.2283C28.1399 28.2283 28.005 28.2605 27.873 28.3251C27.8378 28.3427 27.7997 28.3515 27.7586 28.3515C27.6794 28.3515 27.6119 28.3236 27.5562 28.2679C27.5005 28.2121 27.4726 28.1447 27.4726 28.0655C27.4726 27.9511 27.5254 27.866 27.631 27.8103C27.8774 27.6871 28.1414 27.6255 28.423 27.6255C28.731 27.6255 28.9803 27.6929 29.171 27.8279C29.3675 27.9628 29.4658 28.1931 29.4658 28.5187ZM28.6738 29.2271V29.1083C28.6181 29.032 28.5139 28.9939 28.3614 28.9939C28.1766 28.9939 28.0842 29.0525 28.0842 29.1699C28.0842 29.2843 28.1766 29.3415 28.3614 29.3415C28.5139 29.3415 28.6181 29.3033 28.6738 29.2271Z" fill="black"/>
<path d="M31.4132 27.9687C31.4132 28.0801 31.3839 28.1725 31.3252 28.2459C31.2695 28.3163 31.1888 28.3573 31.0832 28.3691C30.8808 28.3955 30.7518 28.4424 30.696 28.5099V29.4515C30.696 29.56 30.6564 29.6539 30.5772 29.7331C30.501 29.8093 30.4086 29.8475 30.3 29.8475C30.1915 29.8475 30.0976 29.8093 30.0184 29.7331C29.9422 29.6539 29.904 29.56 29.904 29.4515V28.0479C29.904 27.9335 29.9407 27.8367 30.014 27.7575C30.0903 27.6753 30.1856 27.6343 30.3 27.6343C30.3939 27.6343 30.4775 27.6607 30.5508 27.7135C30.6242 27.7663 30.6726 27.8352 30.696 27.9203C30.7459 27.8088 30.8148 27.7281 30.9028 27.6783C30.9586 27.646 31.0158 27.6299 31.0744 27.6299C31.1683 27.6299 31.2475 27.6636 31.312 27.7311C31.3795 27.7956 31.4132 27.8748 31.4132 27.9687Z" fill="black"/>
<path d="M33.7965 28.0303V29.5747C33.7965 29.9853 33.6674 30.2699 33.4093 30.4283C33.1541 30.5867 32.8549 30.6659 32.5117 30.6659C32.2594 30.6659 32.0233 30.6145 31.8033 30.5119C31.6801 30.4532 31.6185 30.3564 31.6185 30.2215C31.6185 30.1305 31.6493 30.0528 31.7109 29.9883C31.7754 29.9267 31.8531 29.8959 31.9441 29.8959C31.9969 29.8959 32.0423 29.9061 32.0805 29.9267C32.2125 29.9883 32.3562 30.0191 32.5117 30.0191C32.6378 30.0191 32.7507 29.9868 32.8505 29.9223C32.9531 29.8548 33.0045 29.7389 33.0045 29.5747V29.4603C32.8373 29.6509 32.6378 29.7463 32.4061 29.7463C32.1303 29.7463 31.9059 29.6553 31.7329 29.4735C31.5598 29.2887 31.4733 29.0261 31.4733 28.6859C31.4733 28.3485 31.5583 28.0875 31.7285 27.9027C31.9015 27.7179 32.1274 27.6255 32.4061 27.6255C32.6495 27.6255 32.849 27.7179 33.0045 27.9027C33.025 27.8235 33.0734 27.7589 33.1497 27.7091C33.2259 27.6592 33.3095 27.6343 33.4005 27.6343C33.509 27.6343 33.6014 27.6739 33.6777 27.7531C33.7569 27.8293 33.7965 27.9217 33.7965 28.0303ZM33.0045 28.9103V28.4615C32.9693 28.4204 32.9209 28.3881 32.8593 28.3647C32.7977 28.3383 32.7375 28.3251 32.6789 28.3251C32.5586 28.3251 32.4618 28.3559 32.3885 28.4175C32.3181 28.4761 32.2829 28.5656 32.2829 28.6859C32.2829 28.8061 32.3181 28.8971 32.3885 28.9587C32.4618 29.0173 32.5586 29.0467 32.6789 29.0467C32.7375 29.0467 32.7977 29.0349 32.8593 29.0115C32.9209 28.9851 32.9693 28.9513 33.0045 28.9103Z" fill="black"/>
<path d="M35.2473 27.6255C35.5494 27.6196 35.8105 27.7149 36.0305 27.9115C36.2505 28.108 36.3575 28.3368 36.3517 28.5979C36.3517 28.7387 36.3135 28.8384 36.2373 28.8971C36.1639 28.9557 36.0451 28.9851 35.8809 28.9851H34.9085C34.9349 29.0643 34.9891 29.1288 35.0713 29.1787C35.1534 29.2285 35.2546 29.2535 35.3749 29.2535C35.4746 29.2535 35.5787 29.2329 35.6873 29.1919C35.7254 29.1772 35.7621 29.1699 35.7973 29.1699C35.8794 29.1699 35.9498 29.1992 36.0085 29.2579C36.0671 29.3165 36.0965 29.3869 36.0965 29.4691C36.0965 29.5277 36.0774 29.582 36.0393 29.6319C36.0041 29.6817 35.9586 29.7199 35.9029 29.7463C35.7093 29.8196 35.4995 29.8563 35.2737 29.8563C34.9305 29.8563 34.6474 29.7551 34.4245 29.5527C34.2015 29.3473 34.0901 29.076 34.0901 28.7387C34.0901 28.4248 34.1986 28.1608 34.4157 27.9467C34.6357 27.7325 34.9129 27.6255 35.2473 27.6255ZM34.8997 28.4835H35.5993C35.5582 28.3133 35.4409 28.2283 35.2473 28.2283C35.0595 28.2283 34.9437 28.3133 34.8997 28.4835Z" fill="black"/>
<path d="M38.8551 28.2943V29.4515C38.8551 29.56 38.8155 29.6539 38.7363 29.7331C38.6601 29.8093 38.5677 29.8475 38.4591 29.8475C38.3506 29.8475 38.2567 29.8093 38.1775 29.7331C38.1013 29.6539 38.0631 29.56 38.0631 29.4515V28.6287C38.0631 28.4263 37.9605 28.3251 37.7551 28.3251C37.6261 28.3251 37.5131 28.3808 37.4163 28.4923V29.4515C37.4163 29.56 37.3767 29.6539 37.2975 29.7331C37.2213 29.8093 37.1289 29.8475 37.0203 29.8475C36.9118 29.8475 36.8179 29.8093 36.7387 29.7331C36.6625 29.6539 36.6243 29.56 36.6243 29.4515V28.0303C36.6243 27.9159 36.661 27.8191 36.7343 27.7399C36.8106 27.6577 36.9059 27.6167 37.0203 27.6167C37.1171 27.6167 37.2007 27.646 37.2711 27.7047C37.3445 27.7604 37.3929 27.8323 37.4163 27.9203C37.5923 27.7237 37.8358 27.6255 38.1467 27.6255C38.3755 27.6255 38.5501 27.6871 38.6703 27.8103C38.7935 27.9305 38.8551 28.0919 38.8551 28.2943Z" fill="black"/>
<path d="M40.7182 29.5043C40.7182 29.5835 40.6933 29.6539 40.6434 29.7155C40.5935 29.7741 40.529 29.8123 40.4498 29.8299C40.3735 29.8475 40.287 29.8563 40.1902 29.8563C39.9526 29.8563 39.7707 29.8005 39.6446 29.6891C39.5214 29.5747 39.4598 29.4075 39.4598 29.1875V28.3647H39.407C39.3131 28.3647 39.2325 28.3309 39.165 28.2635C39.0975 28.196 39.0638 28.1153 39.0638 28.0215C39.0638 27.9276 39.0975 27.8469 39.165 27.7795C39.2325 27.712 39.3131 27.6783 39.407 27.6783H39.4598V27.4495C39.4598 27.3409 39.4979 27.2485 39.5742 27.1723C39.6534 27.0931 39.7473 27.0535 39.8558 27.0535C39.9643 27.0535 40.0567 27.0931 40.133 27.1723C40.2122 27.2485 40.2518 27.3409 40.2518 27.4495V27.6783H40.3838C40.4777 27.6783 40.5583 27.712 40.6258 27.7795C40.6933 27.8469 40.727 27.9276 40.727 28.0215C40.727 28.1153 40.6933 28.196 40.6258 28.2635C40.5583 28.3309 40.4777 28.3647 40.3838 28.3647H40.2518V28.9587C40.2518 29.0115 40.2665 29.0569 40.2958 29.0951C40.3251 29.1332 40.3633 29.1537 40.4102 29.1567L40.4498 29.1611C40.529 29.1699 40.5935 29.208 40.6434 29.2755C40.6933 29.34 40.7182 29.4163 40.7182 29.5043Z" fill="black"/>
<path d="M41.0475 29.0555C41.1413 28.9616 41.2513 28.9147 41.3775 28.9147C41.5036 28.9147 41.6136 28.9616 41.7075 29.0555C41.8013 29.1493 41.8483 29.2593 41.8483 29.3855C41.8483 29.5116 41.8013 29.6216 41.7075 29.7155C41.6136 29.8093 41.5036 29.8563 41.3775 29.8563C41.2513 29.8563 41.1413 29.8093 41.0475 29.7155C40.9536 29.6216 40.9067 29.5116 40.9067 29.3855C40.9067 29.2593 40.9536 29.1493 41.0475 29.0555Z" fill="black"/>
</svg>
