<?xml version="1.0" encoding="UTF-8"?>
<svg id="APP" xmlns="http://www.w3.org/2000/svg" viewBox="0 0 1920 1920">
  <defs>
    <style>
      .cls-1 {
        fill: #151a21;
      }
    </style>
  </defs>
  <g>
    <path class="cls-1" d="m1160.19,434.67c-56.89,0-103.01,46.12-103.01,103.01v310.84c0,53.57-43.6,97.17-97.19,97.17-53.59,0-97.17-43.6-97.17-97.17v-310.84c0-56.89-46.12-103.01-103.01-103.01-56.9,0-103.01,46.12-103.01,103.01v310.84c0,167.19,136.01,303.2,303.2,303.2,167.19,0,303.22-136,303.22-303.2v-310.84c0-56.89-46.12-103.01-103.01-103.01"/>
    <path class="cls-1" d="m503.41,434.66c-56.89,0-103.01,46.12-103.01,103.01v61.47s0,249.37,0,249.37c0,53.57-43.6,97.17-97.19,97.17-53.59,0-97.17-43.6-97.17-97.17v-310.84c0-56.89-46.12-103.01-103.01-103.01C46.11,434.65,0,480.78,0,537.67v310.84c0,167.19,136.01,303.2,303.2,303.2,34,0,66.66-5.69,97.19-16.05v204.56c0,56.89,46.12,103.01,103.01,103.01,56.89,0,103.01-46.12,103.01-103.01v-491.71s0-249.37,0-249.37v-61.47c0-56.89-46.12-103.01-103.01-103.01"/>
    <path class="cls-1" d="m1616.78,434.67c-34,0-66.64,5.71-97.17,16.07v-204.56c0-56.9-46.12-103.03-103.03-103.03-56.89,0-103.01,46.12-103.01,103.03v491.71s0,249.37,0,249.37v61.45c0,56.9,46.12,103.03,103.01,103.03,56.9,0,103.03-46.12,103.03-103.03v-61.45s0-249.37,0-249.37c0-53.59,43.59-97.19,97.17-97.19,53.59,0,97.17,43.6,97.17,97.19v310.82c0,56.9,46.12,103.03,103.03,103.03,56.89,0,103.01-46.12,103.01-103.03v-310.82c0-167.19-136.02-303.22-303.21-303.22"/>
  </g>
  <g>
    <path class="cls-1" d="m708.2,1423.7v-107.55h-29.64c-10.04,0-18.37-8.08-18.37-18.37s8.33-18.37,18.37-18.37h100.94c10.04,0,18.62,8.08,18.62,18.37s-8.57,18.37-18.62,18.37h-29.15v107.55c0,11.51-9.55,21.31-21.07,21.31s-21.07-9.8-21.07-21.31Z"/>
    <path class="cls-1" d="m772.39,1383.52c0-33.32,24.25-61.98,64.43-61.98s64.68,28.66,64.68,61.98-24.01,62.23-64.68,62.23-64.43-28.91-64.43-62.23Zm90.4,0c0-15.68-9.31-28.66-25.97-28.66s-25.48,12.98-25.48,28.66,9.06,28.91,25.48,28.91,25.97-12.98,25.97-28.91Z"/>
    <path class="cls-1" d="m1029.39,1359.02v67.13c0,10.29-8.57,18.86-18.86,18.86s-18.86-8.58-18.86-18.86v-51.69c0-14.46-7.59-19.6-19.35-19.6s-18.62,6.12-23.03,11.51v59.78c0,10.29-8.33,18.86-18.86,18.86s-18.86-8.58-18.86-18.86v-85.01c0-10.78,8.08-19.35,18.86-19.35,10.04,0,17.88,7.35,19.11,16.9,7.35-8.33,20.82-17.15,40.67-17.15,26.95,0,39.2,15.68,39.2,37.48Z"/>
    <path class="cls-1" d="m1207.5,1368.82v56.35c0,10.78-8.08,19.84-18.86,19.84-8.82,0-16.66-5.88-19.11-13.96-7.1,8.82-21.31,14.7-36.5,14.7-18.13,0-40.67-12.25-40.67-38.95,0-28.66,22.54-37.24,40.67-37.24,15.68,0,29.64,4.9,36.75,13.72v-14.94c0-10.29-8.82-17.15-24.01-17.15-8.08,0-16.17,1.96-24.25,6.37-1.96.98-4.17,1.71-6.37,1.71-7.59,0-13.96-6.37-13.96-13.96,0-5.15,3.18-10.04,7.35-12.25,14.21-8.08,29.64-11.51,43.85-11.51,28.42,0,55.12,10.53,55.12,47.28Zm-37.73,43.61v-10.53c-3.92-5.39-12.74-8.33-21.07-8.33-10.04,0-18.86,4.41-18.86,13.72s8.82,13.72,18.86,13.72c8.33,0,17.15-2.94,21.07-8.57Z"/>
    <path class="cls-1" d="m1349.85,1383.52c0,40.18-22.29,62.23-51.94,62.23-13.23,0-25.23-4.9-35.03-16.66v42.14c0,10.29-8.33,18.86-18.86,18.86s-18.86-8.58-18.86-18.86v-130.09c0-10.78,8.08-19.6,18.86-19.6,9.31,0,17.64,7.1,19.35,16.17,9.31-11.27,21.31-16.17,34.54-16.17,29.64,0,51.94,22.05,51.94,61.98Zm-38.46,0c0-17.64-11.27-28.66-25.97-28.66-8.08,0-17.88,4.41-22.54,10.78v36.01c4.66,6.12,14.45,10.78,22.54,10.78,14.7,0,25.97-11.02,25.97-28.91Z"/>
    <path class="cls-1" d="m1484.59,1383.52c0,40.18-22.29,62.23-51.94,62.23-13.23,0-25.23-4.9-35.03-16.66v42.14c0,10.29-8.33,18.86-18.86,18.86s-18.86-8.58-18.86-18.86v-130.09c0-10.78,8.08-19.6,18.86-19.6,9.31,0,17.64,7.1,19.35,16.17,9.31-11.27,21.31-16.17,34.54-16.17,29.64,0,51.94,22.05,51.94,61.98Zm-38.46,0c0-17.64-11.27-28.66-25.97-28.66-8.08,0-17.88,4.41-22.54,10.78v36.01c4.66,6.12,14.45,10.78,22.54,10.78,14.7,0,25.97-11.02,25.97-28.91Z"/>
    <path class="cls-1" d="m1513.26,1399.69c12.49,0,23.03,10.53,23.03,23.03s-10.53,23.03-23.03,23.03-23.03-10.53-23.03-23.03,10.53-23.03,23.03-23.03Z"/>
    <path class="cls-1" d="m708.2,1668.7v-107.55h-29.64c-10.04,0-18.37-8.08-18.37-18.38s8.33-18.38,18.37-18.38h100.94c10.04,0,18.62,8.08,18.62,18.38s-8.57,18.38-18.62,18.38h-29.15v107.55c0,11.51-9.55,21.31-21.07,21.31s-21.07-9.8-21.07-21.31Z"/>
    <path class="cls-1" d="m772.39,1628.52c0-33.32,24.25-61.98,64.43-61.98s64.68,28.66,64.68,61.98-24.01,62.23-64.68,62.23-64.43-28.91-64.43-62.23Zm90.4,0c0-15.68-9.31-28.66-25.97-28.66s-25.48,12.98-25.48,28.66,9.06,28.91,25.48,28.91,25.97-12.99,25.97-28.91Z"/>
    <path class="cls-1" d="m1029.39,1604.02v67.13c0,10.29-8.57,18.87-18.86,18.87s-18.86-8.58-18.86-18.87v-51.69c0-14.46-7.59-19.6-19.35-19.6s-18.62,6.12-23.03,11.51v59.78c0,10.29-8.33,18.87-18.86,18.87s-18.86-8.58-18.86-18.87v-85.01c0-10.78,8.08-19.35,18.86-19.35,10.04,0,17.88,7.35,19.11,16.9,7.35-8.33,20.82-17.15,40.67-17.15,26.95,0,39.2,15.68,39.2,37.48Z"/>
    <path class="cls-1" d="m1207.5,1613.82v56.35c0,10.78-8.08,19.84-18.86,19.84-8.82,0-16.66-5.88-19.11-13.96-7.1,8.82-21.31,14.7-36.5,14.7-18.13,0-40.67-12.25-40.67-38.95,0-28.66,22.54-37.24,40.67-37.24,15.68,0,29.64,4.9,36.75,13.72v-14.94c0-10.29-8.82-17.15-24.01-17.15-8.08,0-16.17,1.96-24.25,6.37-1.96.98-4.17,1.71-6.37,1.71-7.59,0-13.96-6.37-13.96-13.96,0-5.15,3.18-10.04,7.35-12.25,14.21-8.08,29.64-11.51,43.85-11.51,28.42,0,55.12,10.53,55.12,47.28Zm-37.73,43.61v-10.54c-3.92-5.39-12.74-8.33-21.07-8.33-10.04,0-18.86,4.41-18.86,13.72s8.82,13.72,18.86,13.72c8.33,0,17.15-2.94,21.07-8.57Z"/>
    <path class="cls-1" d="m1302.81,1583.44c0,9.55-5.15,17.39-16.41,18.87-7.1.98-18.62,3.67-23.52,10.53v58.31c0,10.29-8.33,18.87-18.86,18.87s-18.86-8.58-18.86-18.87v-84.28c0-10.78,8.08-19.6,18.86-19.6,10.04,0,18.13,6.86,19.11,16.66,3.92-5.63,9.06-11.76,15.19-14.7,2.69-1.22,5.88-2.2,8.57-2.2,9.55,0,15.92,7.35,15.92,16.41Z"/>
    <path class="cls-1" d="m1424.08,1586.13v91.14c0,48.26-38.22,58.55-67.62,58.55-14.94,0-27.93-2.7-40.67-9.8-4.66-2.45-8.33-7.59-8.33-13.47,0-8.57,7.1-15.68,15.68-15.68,2.45,0,4.9.49,7.1,1.71,8.08,4.66,16.9,6.37,26.21,6.37,12.49,0,30.13-5.14,30.13-27.19v-9.31c-10.04,12-21.8,17.39-35.03,17.39-28.91,0-52.18-19.84-52.18-59.78s22.54-59.53,52.18-59.53c12.98,0,24.99,4.9,34.54,16.42.98-8.82,9.8-15.68,19.35-15.68,10.29,0,18.62,8.57,18.62,18.86Zm-37.48,55.86v-31.6c-4.66-6.37-14.7-10.54-22.54-10.54-14.94,0-25.97,9.06-25.97,26.21s11.02,26.46,25.97,26.46c7.84,0,17.88-4.17,22.54-10.54Z"/>
    <path class="cls-1" d="m1497.09,1566.53c35.03,0,60.51,25.72,60.51,55.61,0,13.47-8.08,18.37-22.54,18.37h-61.74c2.2,11.02,12.49,21.07,30.13,21.07,6.61,0,13.96-1.71,20.58-4.9,1.71-.98,3.92-1.47,6.12-1.47,7.84,0,14.21,6.37,14.21,14.45,0,5.88-3.67,10.78-8.57,12.99-11.51,5.63-24.5,8.08-36.99,8.08-36.5,0-64.68-23.76-64.68-62.23,0-34.3,25.97-61.98,62.96-61.98Zm-24.25,49.49h48.75c-.98-8.33-7.1-20.33-24.5-20.33-16.41,0-22.78,11.76-24.25,20.33Z"/>
    <path class="cls-1" d="m1684.27,1604.02v67.13c0,10.29-8.57,18.87-18.86,18.87s-18.86-8.58-18.86-18.87v-51.69c0-14.46-7.59-19.6-19.35-19.6s-18.62,6.12-23.03,11.51v59.78c0,10.29-8.33,18.87-18.86,18.87s-18.86-8.58-18.86-18.87v-85.01c0-10.78,8.08-19.35,18.86-19.35,10.04,0,17.88,7.35,19.11,16.9,7.35-8.33,20.82-17.15,40.67-17.15,26.95,0,39.2,15.68,39.2,37.48Z"/>
    <path class="cls-1" d="m1774.18,1673.59c0,7.59-5.15,13.47-12,15.19-4.17,1.22-9.56,1.96-15.44,1.96-24.01,0-36.99-12-36.99-34.79v-53.65h-5.39c-9.06,0-16.41-7.59-16.41-16.42s7.35-16.42,16.41-16.42h5.39v-15.68c0-10.29,8.33-18.86,18.86-18.86s18.62,8.58,18.62,18.86v15.68h9.8c9.06,0,16.41,7.35,16.41,16.42s-7.35,16.42-16.41,16.42h-9.8v43.12c0,6.61,3.67,11.76,9.8,12h3.67c8.08.49,13.47,7.84,13.47,16.17Z"/>
    <path class="cls-1" d="m1799.41,1644.69c12.5,0,23.03,10.54,23.03,23.03s-10.53,23.03-23.03,23.03-23.03-10.53-23.03-23.03,10.53-23.03,23.03-23.03Z"/>
  </g>
</svg>